name rise35.5848peak51.9257fall54.8793.mot
datacolumns 19
datarows 26
range 17.57159500000000 17.61325900000000
endheader
time	ground_force1_vx	ground_force1_vy	ground_force1_vz	ground_force1_px	ground_force1_py	ground_force1_pz	ground_force2_vx	ground_force2_vy	ground_force2_vz	ground_force2_px	ground_force2_py	ground_force2_pz	ground_torque1_x	ground_torque1_y	ground_torque1_z	ground_torque2_x	ground_torque2_y	ground_torque2_z	
17.57159500000000	-9.90133800000000	45.85041100000000	-14.52522200000000	0.28679000000000	0.00000000000000	0.10284400000000	-47.76552000000000	805.81243300000006	-51.77270400000000	0.08943700000000	0.00000000000000	-0.07770700000000	0.00000000000000	-7.89064200000000	0.00000000000000	0.00000000000000	-15.09768800000000	0.00000000000000	
17.57326200000000	-10.71212800000000	52.48380700000000	-15.96203600000000	0.28925300000000	0.00000000000000	0.10393700000000	-48.19180000000000	803.27851299999998	-51.35903200000000	0.08874300000000	0.00000000000000	-0.07757800000000	0.00000000000000	-8.72429200000000	0.00000000000000	0.00000000000000	-15.01960900000000	0.00000000000000	
17.57493000000000	-11.35462300000000	59.07263300000000	-17.21315000000000	0.29157300000000	0.00000000000000	0.10495700000000	-48.63405000000000	800.63922800000000	-50.93133100000000	0.08804700000000	0.00000000000000	-0.07744600000000	0.00000000000000	-9.46752100000000	0.00000000000000	0.00000000000000	-14.94472200000000	0.00000000000000	
17.57659700000000	-11.81413400000000	65.55232300000000	-18.25651500000000	0.29377500000000	0.00000000000000	0.10591500000000	-49.09235500000000	797.89238200000000	-50.48981400000000	0.08735000000000	0.00000000000000	-0.07731100000000	0.00000000000000	-10.10774400000000	0.00000000000000	0.00000000000000	-14.87309900000000	0.00000000000000	
17.57826400000000	-12.08514100000000	71.88304500000000	-19.08194200000000	0.29587700000000	0.00000000000000	0.10681700000000	-49.56671300000000	795.03565200000003	-50.03468900000000	0.08665300000000	0.00000000000000	-0.07717200000000	0.00000000000000	-10.63870800000000	0.00000000000000	0.00000000000000	-14.80479500000000	0.00000000000000	
17.57992700000000	-12.17049100000000	78.04919800000000	-19.69022600000000	0.29789600000000	0.00000000000000	0.10766900000000	-50.05703200000000	792.06659999999999	-49.56617100000000	0.08595500000000	0.00000000000000	-0.07703000000000	0.00000000000000	-11.06007500000000	0.00000000000000	0.00000000000000	-14.73984500000000	0.00000000000000	
17.58159800000000	-12.08005100000000	84.05700299999999	-20.09152600000000	0.29984400000000	0.00000000000000	0.10847800000000	-50.56312400000000	788.98267699999997	-49.08447000000000	0.08525800000000	0.00000000000000	-0.07688500000000	0.00000000000000	-11.37660900000000	0.00000000000000	0.00000000000000	-14.67826500000000	0.00000000000000	
17.58325800000000	-11.82900900000000	89.93071000000000	-20.30324400000000	0.30173200000000	0.00000000000000	0.10924600000000	-51.08470700000000	785.78123400000004	-48.58979700000000	0.08456200000000	0.00000000000000	-0.07673700000000	0.00000000000000	-11.59707300000000	0.00000000000000	0.00000000000000	-14.62005200000000	0.00000000000000	
17.58492800000000	-11.43604900000000	95.70797100000000	-20.34769100000000	0.30356900000000	0.00000000000000	0.10997700000000	-51.62139900000000	782.45953099999997	-48.08236500000000	0.08386900000000	0.00000000000000	-0.07658600000000	0.00000000000000	-11.73299200000000	0.00000000000000	0.00000000000000	-14.56518300000000	0.00000000000000	
17.58659700000000	-10.92153600000000	101.43492200000000	-20.24974600000000	0.30536100000000	0.00000000000000	0.11067600000000	-52.17271700000000	779.01474299999995	-47.56238400000000	0.08317800000000	0.00000000000000	-0.07643100000000	0.00000000000000	-11.79740000000000	0.00000000000000	0.00000000000000	-14.51361400000000	0.00000000000000	
17.58826200000000	-10.30590100000000	107.16140300000001	-20.03471800000000	0.30711300000000	0.00000000000000	0.11134500000000	-52.73807800000000	775.44397900000001	-47.03006600000000	0.08249000000000	0.00000000000000	-0.07627300000000	0.00000000000000	-11.80367600000000	0.00000000000000	0.00000000000000	-14.46528100000000	0.00000000000000	
17.58992400000000	-9.60827600000000	112.93669600000000	-19.72653700000000	0.30883100000000	0.00000000000000	0.11198500000000	-53.31679500000000	771.74428599999999	-46.48562400000000	0.08180600000000	0.00000000000000	-0.07611200000000	0.00000000000000	-11.76455600000000	0.00000000000000	0.00000000000000	-14.42010200000000	0.00000000000000	
17.59159400000000	-8.84547800000000	118.80600800000001	-19.34636200000000	0.31051600000000	0.00000000000000	0.11260000000000	-53.90807600000000	767.91266800000005	-45.92927000000000	0.08112700000000	0.00000000000000	-0.07594800000000	0.00000000000000	-11.69135100000000	0.00000000000000	0.00000000000000	-14.37797000000000	0.00000000000000	
17.59326200000000	-8.03133900000000	124.80785400000001	-18.91164000000000	0.31217200000000	0.00000000000000	0.11319100000000	-54.51102500000000	763.94609300000002	-45.36121800000000	0.08045400000000	0.00000000000000	-0.07578100000000	0.00000000000000	-11.59341100000000	0.00000000000000	0.00000000000000	-14.33876300000000	0.00000000000000	
17.59493200000000	-7.17638300000000	130.97236500000000	-18.43561200000000	0.31380000000000	0.00000000000000	0.11376000000000	-55.12464300000000	759.84151299999996	-44.78168400000000	0.07978700000000	0.00000000000000	-0.07561100000000	0.00000000000000	-11.47783200000000	0.00000000000000	0.00000000000000	-14.30233600000000	0.00000000000000	
17.59659900000000	-6.28780500000000	137.32050599999999	-17.92721700000000	0.31540200000000	0.00000000000000	0.11430800000000	-55.74782300000000	755.59587699999997	-44.19088600000000	0.07912600000000	0.00000000000000	-0.07543700000000	0.00000000000000	-11.34937100000000	0.00000000000000	0.00000000000000	-14.26852400000000	0.00000000000000	
17.59826500000000	-5.36970500000000	143.86407000000000	-17.39134200000000	0.31697700000000	0.00000000000000	0.11483600000000	-56.37935900000000	751.20614399999999	-43.58904800000000	0.07847300000000	0.00000000000000	-0.07526100000000	0.00000000000000	-11.21055900000000	0.00000000000000	0.00000000000000	-14.23714600000000	0.00000000000000	
17.59992400000000	-4.42351400000000	150.60633100000001	-16.82932000000000	0.31852700000000	0.00000000000000	0.11534600000000	-57.01794000000000	746.66930400000001	-42.97639400000000	0.07782800000000	0.00000000000000	-0.07508100000000	0.00000000000000	-11.06195600000000	0.00000000000000	0.00000000000000	-14.20799800000000	0.00000000000000	
17.60160100000000	-3.44853200000000	157.54316800000001	-16.23960700000000	0.32005100000000	0.00000000000000	0.11583900000000	-57.66215500000000	741.98239200000000	-42.35315400000000	0.07719200000000	0.00000000000000	-0.07489900000000	0.00000000000000	-10.90250500000000	0.00000000000000	0.00000000000000	-14.18086000000000	0.00000000000000	
17.60327700000000	-2.44253900000000	164.66450300000000	-15.61854600000000	0.32154700000000	0.00000000000000	0.11631500000000	-58.31049600000000	737.14250800000002	-41.71956700000000	0.07656400000000	0.00000000000000	-0.07471400000000	0.00000000000000	-10.72994500000000	0.00000000000000	0.00000000000000	-14.15549600000000	0.00000000000000	
17.60493700000000	-1.40239700000000	171.95587200000000	-14.96115100000000	0.32301700000000	0.00000000000000	0.11677600000000	-58.96135800000000	732.14683600000001	-41.07587300000000	0.07594600000000	0.00000000000000	-0.07452600000000	0.00000000000000	-10.54123400000000	0.00000000000000	0.00000000000000	-14.13165000000000	0.00000000000000	
17.60659700000000	-0.32461700000000	179.40000300000000	-14.26184700000000	0.32445700000000	0.00000000000000	0.11722200000000	-59.61304600000000	726.99266100000000	-40.42232300000000	0.07533700000000	0.00000000000000	-0.07433500000000	0.00000000000000	-10.33296300000000	0.00000000000000	0.00000000000000	-14.10905100000000	0.00000000000000	
17.60826200000000	0.79414900000000	186.97827699999999	-13.51511400000000	0.32586900000000	0.00000000000000	0.11765400000000	-60.26377600000000	721.67739099999994	-39.75917400000000	0.07473900000000	0.00000000000000	-0.07414100000000	0.00000000000000	-10.10171500000000	0.00000000000000	0.00000000000000	-14.08741500000000	0.00000000000000	
17.60992600000000	1.95672500000000	194.67198500000001	-12.71601900000000	0.32724800000000	0.00000000000000	0.11807200000000	-60.91167700000000	716.19857800000000	-39.08669400000000	0.07415100000000	0.00000000000000	-0.07394400000000	0.00000000000000	-9.84436700000000	0.00000000000000	0.00000000000000	-14.06644200000000	0.00000000000000	
17.61159900000000	3.16512300000000	202.46333400000000	-11.86060500000000	0.32859600000000	0.00000000000000	0.11847700000000	-61.55480300000000	710.55393400000003	-38.40515900000000	0.07357300000000	0.00000000000000	-0.07374500000000	0.00000000000000	-9.55831600000000	0.00000000000000	0.00000000000000	-14.04581900000000	0.00000000000000	
17.61325900000000	4.42037000000000	210.33617100000001	-10.94614100000000	0.32990800000000	0.00000000000000	0.11887000000000	-62.19113000000000	704.74135699999999	-37.71485600000000	0.07300600000000	0.00000000000000	-0.07354400000000	0.00000000000000	-9.24163400000000	0.00000000000000	0.00000000000000	-14.02522300000000	0.00000000000000	
